<?xml version="1.0" encoding="utf-8"?>
<!-- Generator: Adobe Illustrator 23.0.4, SVG Export Plug-In . SVG Version: 6.00 Build 0)  -->
<svg version="1.1" id="Layer_2" xmlns="http://www.w3.org/2000/svg" xmlns:xlink="http://www.w3.org/1999/xlink" x="0px" y="0px"
	 viewBox="0 0 192 192" enable-background="new 0 0 192 192" xml:space="preserve">
<path fill="#455A65" d="M111.8,111.8L111.8,111.8c-8.8,8.8-23,8.8-31.8,0L32.6,64.5c-8.8-8.8-8.8-23,0-31.8l0,0
	c8.8-8.8,23-8.8,31.8,0L111.8,80C120.6,88.8,120.6,103.1,111.8,111.8z"/>
<path fill="#F3923B" d="M32.6,159.4L32.6,159.4c-8.8-8.8-8.8-23,0-31.8L80,80.2c8.8-8.8,23-8.8,31.8,0l0,0c8.8,8.8,8.8,23,0,31.8
	l-47.4,47.4C55.7,168.1,41.4,168.1,32.6,159.4z"/>
<path fill="#E97534" d="M159.4,159.4L159.4,159.4c-8.8,8.8-23,8.8-31.8,0L80.2,112c-8.8-8.8-8.8-23,0-31.8l0,0
	c8.8-8.8,23-8.8,31.8,0l47.4,47.4C168.1,136.3,168.1,150.6,159.4,159.4z"/>
</svg>
